# xmcd
#
# Track frame offsets: 
#        150
#        14987
#        30992
#        49205
#        67290
#        86650
#        102987
#        123070
#        138707
#        159902
#
# Disc length: 2342 seconds
#
# Revision: 0
# Processed by: cddbd v1.5.1PL0 Copyright (c) Steve Scherf et al.
# Submitted via: ExactAudioCopy v0.95a3
#
DISCID=8909240a
DTITLE=Kenny Rogers - Across My Heart
DYEAR=1997
DGENRE=Country
TTITLE0=To Me
TTITLE1=Write Your Name (Across My Heart)
TTITLE2=The Only Way I Know
TTITLE3=Have A Little Faith In Me
TTITLE4=Sing Me Your Love Song
TTITLE5=As God Is My Witness
TTITLE6=You're Not Asking Much
TTITLE7=Only Once In A Lifetime
TTITLE8=Find A Little Grace
TTITLE9=See Me Through
EXTD=
EXTT0=
EXTT1=
EXTT2=
EXTT3=
EXTT4=
EXTT5=
EXTT6=
EXTT7=
EXTT8=
EXTT9=
PLAYORDER=
